<mxfile host="Electron" agent="Mozilla/5.0 (X11; Linux x86_64) AppleWebKit/537.36 (KHTML, like Gecko) draw.io/26.0.9 Chrome/128.0.6613.186 Electron/32.3.1 Safari/537.36" version="26.0.9">
  <diagram id="R2lEEEUBdFMjLlhIrx00" name="Page-1">
    <mxGraphModel dx="1061" dy="837" grid="1" gridSize="10" guides="1" tooltips="1" connect="1" arrows="1" fold="1" page="1" pageScale="1" pageWidth="850" pageHeight="1100" math="0" shadow="0" extFonts="Permanent Marker^https://fonts.googleapis.com/css?family=Permanent+Marker">
      <root>
        <mxCell id="0" />
        <mxCell id="1" parent="0" />
        <mxCell id="ASMv-oVJEkGhhbs-4qaE-53" style="edgeStyle=orthogonalEdgeStyle;rounded=0;orthogonalLoop=1;jettySize=auto;html=1;exitX=0;exitY=0.5;exitDx=0;exitDy=0;entryX=0;entryY=0.5;entryDx=0;entryDy=0;endArrow=none;startFill=0;" edge="1" parent="1" source="ASMv-oVJEkGhhbs-4qaE-2" target="ASMv-oVJEkGhhbs-4qaE-51">
          <mxGeometry relative="1" as="geometry" />
        </mxCell>
        <mxCell id="ASMv-oVJEkGhhbs-4qaE-2" value="task_item" style="whiteSpace=wrap;html=1;align=center;" vertex="1" parent="1">
          <mxGeometry x="270" y="870" width="100" height="40" as="geometry" />
        </mxCell>
        <mxCell id="ASMv-oVJEkGhhbs-4qaE-45" style="edgeStyle=orthogonalEdgeStyle;rounded=0;orthogonalLoop=1;jettySize=auto;html=1;exitX=0;exitY=0.5;exitDx=0;exitDy=0;endArrow=none;startFill=0;" edge="1" parent="1" source="ASMv-oVJEkGhhbs-4qaE-3" target="ASMv-oVJEkGhhbs-4qaE-44">
          <mxGeometry relative="1" as="geometry" />
        </mxCell>
        <mxCell id="ASMv-oVJEkGhhbs-4qaE-71" value="" style="edgeStyle=orthogonalEdgeStyle;rounded=0;orthogonalLoop=1;jettySize=auto;html=1;endArrow=none;startFill=0;" edge="1" parent="1" source="ASMv-oVJEkGhhbs-4qaE-3">
          <mxGeometry relative="1" as="geometry">
            <mxPoint x="530" y="890" as="targetPoint" />
          </mxGeometry>
        </mxCell>
        <mxCell id="ASMv-oVJEkGhhbs-4qaE-3" value="task" style="whiteSpace=wrap;html=1;align=center;" vertex="1" parent="1">
          <mxGeometry x="610" y="870" width="100" height="40" as="geometry" />
        </mxCell>
        <mxCell id="ASMv-oVJEkGhhbs-4qaE-68" style="edgeStyle=orthogonalEdgeStyle;rounded=0;orthogonalLoop=1;jettySize=auto;html=1;exitX=0.5;exitY=1;exitDx=0;exitDy=0;entryX=0;entryY=0.5;entryDx=0;entryDy=0;endArrow=none;startFill=0;" edge="1" parent="1" source="ASMv-oVJEkGhhbs-4qaE-4" target="ASMv-oVJEkGhhbs-4qaE-67">
          <mxGeometry relative="1" as="geometry" />
        </mxCell>
        <mxCell id="ASMv-oVJEkGhhbs-4qaE-4" value="incident" style="whiteSpace=wrap;html=1;align=center;" vertex="1" parent="1">
          <mxGeometry x="30" y="960" width="100" height="40" as="geometry" />
        </mxCell>
        <mxCell id="ASMv-oVJEkGhhbs-4qaE-65" style="edgeStyle=orthogonalEdgeStyle;rounded=0;orthogonalLoop=1;jettySize=auto;html=1;exitX=0.5;exitY=1;exitDx=0;exitDy=0;entryX=0.5;entryY=0;entryDx=0;entryDy=0;endArrow=none;startFill=0;" edge="1" parent="1" source="ASMv-oVJEkGhhbs-4qaE-6" target="ASMv-oVJEkGhhbs-4qaE-64">
          <mxGeometry relative="1" as="geometry" />
        </mxCell>
        <mxCell id="ASMv-oVJEkGhhbs-4qaE-6" value="schedule" style="whiteSpace=wrap;html=1;align=center;" vertex="1" parent="1">
          <mxGeometry x="30" y="720" width="100" height="40" as="geometry" />
        </mxCell>
        <mxCell id="ASMv-oVJEkGhhbs-4qaE-49" style="edgeStyle=orthogonalEdgeStyle;rounded=0;orthogonalLoop=1;jettySize=auto;html=1;exitX=1;exitY=0.5;exitDx=0;exitDy=0;entryX=0.5;entryY=0;entryDx=0;entryDy=0;endArrow=none;startFill=0;" edge="1" parent="1" source="ASMv-oVJEkGhhbs-4qaE-7" target="ASMv-oVJEkGhhbs-4qaE-47">
          <mxGeometry relative="1" as="geometry" />
        </mxCell>
        <mxCell id="ASMv-oVJEkGhhbs-4qaE-7" value="activity" style="whiteSpace=wrap;html=1;align=center;" vertex="1" parent="1">
          <mxGeometry x="300" y="740" width="100" height="40" as="geometry" />
        </mxCell>
        <mxCell id="ASMv-oVJEkGhhbs-4qaE-8" value="category" style="whiteSpace=wrap;html=1;align=center;" vertex="1" parent="1">
          <mxGeometry x="460" y="600" width="100" height="40" as="geometry" />
        </mxCell>
        <mxCell id="ASMv-oVJEkGhhbs-4qaE-9" value="role" style="whiteSpace=wrap;html=1;align=center;" vertex="1" parent="1">
          <mxGeometry x="725" y="400" width="100" height="40" as="geometry" />
        </mxCell>
        <mxCell id="ASMv-oVJEkGhhbs-4qaE-27" style="edgeStyle=orthogonalEdgeStyle;rounded=0;orthogonalLoop=1;jettySize=auto;html=1;entryX=1;entryY=0.5;entryDx=0;entryDy=0;exitX=0.25;exitY=1;exitDx=0;exitDy=0;endArrow=none;startFill=0;" edge="1" parent="1" source="ASMv-oVJEkGhhbs-4qaE-10" target="ASMv-oVJEkGhhbs-4qaE-19">
          <mxGeometry relative="1" as="geometry">
            <mxPoint x="250" y="480" as="sourcePoint" />
          </mxGeometry>
        </mxCell>
        <mxCell id="ASMv-oVJEkGhhbs-4qaE-31" style="edgeStyle=orthogonalEdgeStyle;rounded=0;orthogonalLoop=1;jettySize=auto;html=1;exitX=1;exitY=0.5;exitDx=0;exitDy=0;entryX=0.5;entryY=0;entryDx=0;entryDy=0;endArrow=none;startFill=0;" edge="1" parent="1" source="ASMv-oVJEkGhhbs-4qaE-10" target="ASMv-oVJEkGhhbs-4qaE-28">
          <mxGeometry relative="1" as="geometry" />
        </mxCell>
        <mxCell id="ASMv-oVJEkGhhbs-4qaE-33" style="edgeStyle=orthogonalEdgeStyle;rounded=0;orthogonalLoop=1;jettySize=auto;html=1;exitX=1;exitY=0.5;exitDx=0;exitDy=0;endArrow=none;startFill=0;" edge="1" parent="1" source="ASMv-oVJEkGhhbs-4qaE-10" target="ASMv-oVJEkGhhbs-4qaE-29">
          <mxGeometry relative="1" as="geometry" />
        </mxCell>
        <mxCell id="ASMv-oVJEkGhhbs-4qaE-42" style="edgeStyle=orthogonalEdgeStyle;rounded=0;orthogonalLoop=1;jettySize=auto;html=1;exitX=0.5;exitY=1;exitDx=0;exitDy=0;endArrow=none;startFill=0;" edge="1" parent="1" source="ASMv-oVJEkGhhbs-4qaE-10" target="ASMv-oVJEkGhhbs-4qaE-41">
          <mxGeometry relative="1" as="geometry" />
        </mxCell>
        <mxCell id="ASMv-oVJEkGhhbs-4qaE-60" style="edgeStyle=orthogonalEdgeStyle;rounded=0;orthogonalLoop=1;jettySize=auto;html=1;exitX=0.75;exitY=1;exitDx=0;exitDy=0;entryX=0.5;entryY=0;entryDx=0;entryDy=0;endArrow=none;startFill=0;" edge="1" parent="1" source="ASMv-oVJEkGhhbs-4qaE-10" target="ASMv-oVJEkGhhbs-4qaE-59">
          <mxGeometry relative="1" as="geometry" />
        </mxCell>
        <mxCell id="ASMv-oVJEkGhhbs-4qaE-10" value="user" style="whiteSpace=wrap;html=1;align=center;" vertex="1" parent="1">
          <mxGeometry x="200" y="400" width="100" height="40" as="geometry" />
        </mxCell>
        <mxCell id="ASMv-oVJEkGhhbs-4qaE-24" style="edgeStyle=orthogonalEdgeStyle;rounded=0;orthogonalLoop=1;jettySize=auto;html=1;exitX=0.5;exitY=1;exitDx=0;exitDy=0;endArrow=none;startFill=0;" edge="1" parent="1" source="ASMv-oVJEkGhhbs-4qaE-11" target="ASMv-oVJEkGhhbs-4qaE-19">
          <mxGeometry relative="1" as="geometry" />
        </mxCell>
        <mxCell id="ASMv-oVJEkGhhbs-4qaE-11" value="center" style="whiteSpace=wrap;html=1;align=center;" vertex="1" parent="1">
          <mxGeometry x="40" y="400" width="100" height="40" as="geometry" />
        </mxCell>
        <mxCell id="ASMv-oVJEkGhhbs-4qaE-17" value="note" style="whiteSpace=wrap;html=1;align=center;" vertex="1" parent="1">
          <mxGeometry x="730" y="670" width="100" height="40" as="geometry" />
        </mxCell>
        <mxCell id="ASMv-oVJEkGhhbs-4qaE-18" value="item_type" style="whiteSpace=wrap;html=1;align=center;" vertex="1" parent="1">
          <mxGeometry x="460" y="960" width="100" height="40" as="geometry" />
        </mxCell>
        <mxCell id="ASMv-oVJEkGhhbs-4qaE-19" value="serve" style="shape=rhombus;perimeter=rhombusPerimeter;whiteSpace=wrap;html=1;align=center;" vertex="1" parent="1">
          <mxGeometry x="30" y="500" width="120" height="60" as="geometry" />
        </mxCell>
        <mxCell id="ASMv-oVJEkGhhbs-4qaE-36" style="edgeStyle=orthogonalEdgeStyle;rounded=0;orthogonalLoop=1;jettySize=auto;html=1;exitX=0.5;exitY=1;exitDx=0;exitDy=0;entryX=0.5;entryY=0;entryDx=0;entryDy=0;endArrow=none;startFill=0;" edge="1" parent="1" source="ASMv-oVJEkGhhbs-4qaE-28" target="ASMv-oVJEkGhhbs-4qaE-8">
          <mxGeometry relative="1" as="geometry" />
        </mxCell>
        <mxCell id="ASMv-oVJEkGhhbs-4qaE-28" value="belongs" style="shape=rhombus;perimeter=rhombusPerimeter;whiteSpace=wrap;html=1;align=center;" vertex="1" parent="1">
          <mxGeometry x="450" y="490" width="120" height="60" as="geometry" />
        </mxCell>
        <mxCell id="ASMv-oVJEkGhhbs-4qaE-37" style="edgeStyle=orthogonalEdgeStyle;rounded=0;orthogonalLoop=1;jettySize=auto;html=1;exitX=1;exitY=0.5;exitDx=0;exitDy=0;endArrow=none;startFill=0;" edge="1" parent="1" source="ASMv-oVJEkGhhbs-4qaE-29" target="ASMv-oVJEkGhhbs-4qaE-9">
          <mxGeometry relative="1" as="geometry" />
        </mxCell>
        <mxCell id="ASMv-oVJEkGhhbs-4qaE-29" value="has" style="shape=rhombus;perimeter=rhombusPerimeter;whiteSpace=wrap;html=1;align=center;" vertex="1" parent="1">
          <mxGeometry x="545" y="390" width="120" height="60" as="geometry" />
        </mxCell>
        <mxCell id="ASMv-oVJEkGhhbs-4qaE-48" style="edgeStyle=orthogonalEdgeStyle;rounded=0;orthogonalLoop=1;jettySize=auto;html=1;exitX=0.5;exitY=1;exitDx=0;exitDy=0;endArrow=none;startFill=0;" edge="1" parent="1" source="ASMv-oVJEkGhhbs-4qaE-41" target="ASMv-oVJEkGhhbs-4qaE-7">
          <mxGeometry relative="1" as="geometry" />
        </mxCell>
        <mxCell id="ASMv-oVJEkGhhbs-4qaE-41" value="does" style="shape=rhombus;perimeter=rhombusPerimeter;whiteSpace=wrap;html=1;align=center;" vertex="1" parent="1">
          <mxGeometry x="190" y="550" width="120" height="60" as="geometry" />
        </mxCell>
        <mxCell id="ASMv-oVJEkGhhbs-4qaE-46" style="edgeStyle=orthogonalEdgeStyle;rounded=0;orthogonalLoop=1;jettySize=auto;html=1;exitX=0;exitY=0.5;exitDx=0;exitDy=0;endArrow=none;startFill=0;" edge="1" parent="1" source="ASMv-oVJEkGhhbs-4qaE-44" target="ASMv-oVJEkGhhbs-4qaE-2">
          <mxGeometry relative="1" as="geometry">
            <mxPoint x="420" y="910" as="sourcePoint" />
          </mxGeometry>
        </mxCell>
        <mxCell id="ASMv-oVJEkGhhbs-4qaE-44" value="content" style="shape=rhombus;perimeter=rhombusPerimeter;whiteSpace=wrap;html=1;align=center;" vertex="1" parent="1">
          <mxGeometry x="440" y="860" width="120" height="60" as="geometry" />
        </mxCell>
        <mxCell id="ASMv-oVJEkGhhbs-4qaE-50" style="edgeStyle=orthogonalEdgeStyle;rounded=0;orthogonalLoop=1;jettySize=auto;html=1;exitX=0.5;exitY=1;exitDx=0;exitDy=0;endArrow=none;startFill=0;" edge="1" parent="1" source="ASMv-oVJEkGhhbs-4qaE-47" target="ASMv-oVJEkGhhbs-4qaE-3">
          <mxGeometry relative="1" as="geometry" />
        </mxCell>
        <mxCell id="ASMv-oVJEkGhhbs-4qaE-47" value="content" style="shape=rhombus;perimeter=rhombusPerimeter;whiteSpace=wrap;html=1;align=center;" vertex="1" parent="1">
          <mxGeometry x="600" y="780" width="120" height="60" as="geometry" />
        </mxCell>
        <mxCell id="ASMv-oVJEkGhhbs-4qaE-57" style="edgeStyle=orthogonalEdgeStyle;rounded=0;orthogonalLoop=1;jettySize=auto;html=1;exitX=1;exitY=0.5;exitDx=0;exitDy=0;entryX=0;entryY=0.5;entryDx=0;entryDy=0;endArrow=none;startFill=0;" edge="1" parent="1" source="ASMv-oVJEkGhhbs-4qaE-51" target="ASMv-oVJEkGhhbs-4qaE-18">
          <mxGeometry relative="1" as="geometry" />
        </mxCell>
        <mxCell id="ASMv-oVJEkGhhbs-4qaE-51" value="is" style="shape=rhombus;perimeter=rhombusPerimeter;whiteSpace=wrap;html=1;align=center;" vertex="1" parent="1">
          <mxGeometry x="270" y="950" width="120" height="60" as="geometry" />
        </mxCell>
        <mxCell id="ASMv-oVJEkGhhbs-4qaE-62" style="edgeStyle=orthogonalEdgeStyle;rounded=0;orthogonalLoop=1;jettySize=auto;html=1;exitX=1;exitY=0.5;exitDx=0;exitDy=0;entryX=0;entryY=0.5;entryDx=0;entryDy=0;endArrow=none;startFill=0;" edge="1" parent="1" source="ASMv-oVJEkGhhbs-4qaE-58" target="ASMv-oVJEkGhhbs-4qaE-7">
          <mxGeometry relative="1" as="geometry" />
        </mxCell>
        <mxCell id="ASMv-oVJEkGhhbs-4qaE-63" style="edgeStyle=orthogonalEdgeStyle;rounded=0;orthogonalLoop=1;jettySize=auto;html=1;exitX=0.5;exitY=1;exitDx=0;exitDy=0;endArrow=none;startFill=0;" edge="1" parent="1" source="ASMv-oVJEkGhhbs-4qaE-58" target="ASMv-oVJEkGhhbs-4qaE-6">
          <mxGeometry relative="1" as="geometry" />
        </mxCell>
        <mxCell id="ASMv-oVJEkGhhbs-4qaE-58" value="apoint" style="shape=rhombus;perimeter=rhombusPerimeter;whiteSpace=wrap;html=1;align=center;" vertex="1" parent="1">
          <mxGeometry x="20" y="600" width="120" height="60" as="geometry" />
        </mxCell>
        <mxCell id="ASMv-oVJEkGhhbs-4qaE-61" style="edgeStyle=orthogonalEdgeStyle;rounded=0;orthogonalLoop=1;jettySize=auto;html=1;exitX=0.5;exitY=1;exitDx=0;exitDy=0;entryX=0;entryY=0.5;entryDx=0;entryDy=0;endArrow=none;startFill=0;" edge="1" parent="1" source="ASMv-oVJEkGhhbs-4qaE-59" target="ASMv-oVJEkGhhbs-4qaE-17">
          <mxGeometry relative="1" as="geometry" />
        </mxCell>
        <mxCell id="ASMv-oVJEkGhhbs-4qaE-59" value="comunicate" style="shape=rhombus;perimeter=rhombusPerimeter;whiteSpace=wrap;html=1;align=center;" vertex="1" parent="1">
          <mxGeometry x="320" y="510" width="120" height="60" as="geometry" />
        </mxCell>
        <mxCell id="ASMv-oVJEkGhhbs-4qaE-66" style="edgeStyle=orthogonalEdgeStyle;rounded=0;orthogonalLoop=1;jettySize=auto;html=1;exitX=0.5;exitY=1;exitDx=0;exitDy=0;entryX=0.5;entryY=0;entryDx=0;entryDy=0;endArrow=none;startFill=0;" edge="1" parent="1" source="ASMv-oVJEkGhhbs-4qaE-64" target="ASMv-oVJEkGhhbs-4qaE-4">
          <mxGeometry relative="1" as="geometry">
            <mxPoint x="80" y="940" as="targetPoint" />
          </mxGeometry>
        </mxCell>
        <mxCell id="ASMv-oVJEkGhhbs-4qaE-64" value="execution" style="shape=rhombus;perimeter=rhombusPerimeter;whiteSpace=wrap;html=1;align=center;" vertex="1" parent="1">
          <mxGeometry x="20" y="830" width="120" height="60" as="geometry" />
        </mxCell>
        <mxCell id="ASMv-oVJEkGhhbs-4qaE-69" style="edgeStyle=orthogonalEdgeStyle;rounded=0;orthogonalLoop=1;jettySize=auto;html=1;exitX=1;exitY=0.5;exitDx=0;exitDy=0;entryX=0.5;entryY=1;entryDx=0;entryDy=0;endArrow=none;startFill=0;" edge="1" parent="1" source="ASMv-oVJEkGhhbs-4qaE-67" target="ASMv-oVJEkGhhbs-4qaE-17">
          <mxGeometry relative="1" as="geometry" />
        </mxCell>
        <mxCell id="ASMv-oVJEkGhhbs-4qaE-67" value="generates" style="shape=rhombus;perimeter=rhombusPerimeter;whiteSpace=wrap;html=1;align=center;" vertex="1" parent="1">
          <mxGeometry x="200" y="1030" width="120" height="60" as="geometry" />
        </mxCell>
      </root>
    </mxGraphModel>
  </diagram>
</mxfile>
